<svg width="44" height="44" viewBox="0 0 44 44" fill="none" xmlns="http://www.w3.org/2000/svg">
<path d="M16.899 41.6596L25.063 38.1942C25.3686 40.2114 24.2887 42.2567 22.3239 43.0906C20.3592 43.9246 18.1378 43.2807 16.899 41.6596ZM29.349 0.79801C34.1288 3.40947 37.717 6.76246 40.0779 10.8518C42.4389 14.941 43.5486 19.725 43.4202 25.1702C43.3979 26.1192 42.6105 26.8703 41.6615 26.848C40.7125 26.8256 39.9613 26.0382 39.9837 25.0892C40.0977 20.2507 39.1324 16.089 37.101 12.5705C35.0696 9.052 31.9481 6.13513 27.7008 3.81464C26.8678 3.35952 26.5614 2.31527 27.0166 1.48225C27.4717 0.649236 28.5159 0.342889 29.349 0.79801ZM8.38057 10.9307C14.9388 8.01084 22.5984 10.7717 25.7961 17.2225L26.0213 17.7025L28.9715 24.3296L32.8635 27.6978C33.0759 27.8817 33.2599 28.0958 33.4733 28.4421L33.6078 28.7041C34.2481 30.1508 33.5943 31.8426 32.1476 32.4829L8.48241 42.9562C8.11728 43.1178 7.7224 43.2013 7.32311 43.2013C5.74105 43.2013 4.45853 41.9187 4.45853 40.3375L4.45604 34.9682L1.60893 28.5715C-1.40118 21.8106 1.62996 13.9363 8.38057 10.9307ZM4.74933 27.1735L7.8932 34.237L7.89562 39.4568L29.9301 29.7052L26.1427 26.4275L22.8958 19.1328L22.7008 18.7173C20.3372 13.9498 14.6529 11.9009 9.77873 14.071C4.76115 16.305 2.5119 22.1481 4.74933 27.1735ZM28.8045 9.04949C31.0206 10.2578 32.7966 12.0164 34.1126 14.2958C35.4287 16.5753 36.0636 18.9926 36.0021 21.5159C35.9789 22.4649 35.1908 23.2154 34.2419 23.1923C33.2929 23.1691 32.5424 22.3811 32.5656 21.4321C32.6115 19.5493 32.14 17.7541 31.1357 16.0146C30.1314 14.275 28.8124 12.9691 27.1589 12.0675C26.3255 11.6131 26.0183 10.5691 26.4727 9.73567C26.9272 8.90227 27.9711 8.59506 28.8045 9.04949Z" fill="#FCFFFF"/>
</svg>
