<svg width="74" height="62" viewBox="0 0 74 62" fill="none" xmlns="http://www.w3.org/2000/svg">
<path d="M41.2769 60.8286C40.8427 60.3845 40.6025 59.7862 40.6091 59.1651C40.6157 58.5441 40.8686 57.951 41.3121 57.5162L65.6884 33.6491L2.60211 32.9782C1.98055 32.9716 1.38706 32.7184 0.952222 32.2742C0.517384 31.83 0.276805 31.2312 0.283415 30.6097C0.290025 29.9881 0.543283 29.3946 0.98747 28.9598C1.43166 28.5249 2.03039 28.2844 2.65196 28.291L65.7382 28.9619L41.8751 4.58174C41.4658 4.13307 41.2467 3.54306 41.2638 2.93602C41.281 2.32897 41.5331 1.75229 41.9671 1.32747C42.4011 0.902643 42.983 0.662843 43.5902 0.658588C44.1975 0.654332 44.7827 0.885952 45.2226 1.30465L73.0469 29.7271C73.4811 30.1712 73.7213 30.7695 73.7147 31.3906C73.7081 32.0117 73.4552 32.6047 73.0117 33.0395L44.5892 60.8638C44.1451 61.298 43.5468 61.5382 42.9258 61.5316C42.3047 61.525 41.7116 61.2721 41.2769 60.8286Z" fill="black"/>
</svg>
