<svg width="40" height="40" viewBox="0 0 40 40" fill="none" xmlns="http://www.w3.org/2000/svg">
<path d="M25 35C21.7222 35 18.8056 34.0694 16.25 32.2083C13.6944 30.3472 11.8889 27.9444 10.8333 25H5V21.6667H10.0833C10 21 9.96556 20.3822 9.98 19.8133C9.99444 19.2444 10.0289 18.7511 10.0833 18.3333H5V15H10.8333C11.8889 12.0556 13.6944 9.65278 16.25 7.79167C18.8056 5.93056 21.7222 5 25 5C26.9167 5 28.7294 5.34056 30.4383 6.02167C32.1472 6.70278 33.6678 7.64 35 8.83333L32.625 11.1667C31.5972 10.2778 30.4378 9.58333 29.1467 9.08333C27.8556 8.58333 26.4733 8.33333 25 8.33333C22.6389 8.33333 20.5278 8.95167 18.6667 10.1883C16.8056 11.425 15.4028 13.0289 14.4583 15H25V18.3333H13.4583C13.3472 19.0833 13.3056 19.7433 13.3333 20.3133C13.3611 20.8833 13.4028 21.3344 13.4583 21.6667H25V25H14.4583C15.4028 26.9722 16.8056 28.5767 18.6667 29.8133C20.5278 31.05 22.6389 31.6678 25 31.6667C26.4722 31.6667 27.8544 31.4167 29.1467 30.9167C30.4389 30.4167 31.5983 29.7222 32.625 28.8333L35 31.1667C33.6667 32.3611 32.1456 33.2989 30.4367 33.98C28.7278 34.6611 26.9156 35.0011 25 35Z" fill="black"/>
</svg>
