<svg width="49" height="49" viewBox="0 0 49 49" fill="none" xmlns="http://www.w3.org/2000/svg">
<g clip-path="url(#clip0_721_1811)">
<path d="M24.5 48.5C37.7548 48.5 48.5 37.7548 48.5 24.5C48.5 11.2452 37.7548 0.5 24.5 0.5C11.2452 0.5 0.5 11.2452 0.5 24.5C0.5 37.7548 11.2452 48.5 24.5 48.5Z" fill="#FCFCFC"/>
<path d="M33.1895 25.6651L34.226 22.0728H27.742V19.7427C27.742 18.7597 28.6462 17.801 31.5503 17.801H34.5V14.7427C34.5 14.7427 31.8242 14.5 29.2672 14.5C23.9247 14.5 20.4362 16.2209 20.4362 19.3349V22.0728H14.5V25.6651H20.4362V34.3495C21.6278 34.4491 22.847 34.5 24.089 34.5C25.331 34.5 26.5503 34.4491 27.742 34.3495V25.6651H33.1895Z" fill="black"/>
</g>
<defs>
<clipPath id="clip0_721_1811">
<rect width="48" height="48" fill="white" transform="translate(0.5 0.5)"/>
</clipPath>
</defs>
</svg>
