<svg width="48" height="48" viewBox="0 0 48 48" fill="none" xmlns="http://www.w3.org/2000/svg">
<g clip-path="url(#clip0_2556_6210)">
<path d="M24 48C37.2548 48 48 37.2548 48 24C48 10.7452 37.2548 0 24 0C10.7452 0 0 10.7452 0 24C0 37.2548 10.7452 48 24 48Z" fill="#A6B7A9"/>
<path d="M32.6895 25.1651L33.726 21.5728H27.242V19.2427C27.242 18.2597 28.1462 17.301 31.0503 17.301H34V14.2427C34 14.2427 31.3242 14 28.7672 14C23.4247 14 19.9362 15.7209 19.9362 18.8349V21.5728H14V25.1651H19.9362V33.8495C21.1278 33.9491 22.347 34 23.589 34C24.831 34 26.0503 33.9491 27.242 33.8495V25.1651H32.6895Z" fill="#114A3E"/>
</g>
<defs>
<clipPath id="clip0_2556_6210">
<rect width="48" height="48" fill="white"/>
</clipPath>
</defs>
</svg>
