<svg width="30" height="38" viewBox="0 0 30 38" fill="none" xmlns="http://www.w3.org/2000/svg">
<path d="M30 11.8183C30 13.5654 29.7654 15.2034 29.2963 16.7321C28.8445 18.2608 28.2363 19.6888 27.4718 21.0159C26.7072 22.3431 25.8123 23.5694 24.7871 24.695C23.7793 25.8205 22.7194 26.8537 21.6073 27.7944C20.4952 28.7352 19.3658 29.5836 18.2189 30.3395C17.0721 31.0787 15.9774 31.7339 14.9348 32.305C13.8923 32.8762 12.9453 33.3634 12.0938 33.7666C11.2424 34.1698 10.556 34.4973 10.0348 34.7493C11.5639 34.7325 13.1798 34.6317 14.8827 34.4469C16.603 34.2622 18.3145 33.9766 20.0174 33.5902C21.7376 33.2038 23.4057 32.7166 25.0217 32.1286C26.6377 31.5407 28.106 30.8435 29.4266 30.0371L28.6707 38L0 37.0172C1.3901 36.2109 2.92789 35.3457 4.61338 34.4217C6.29887 33.481 7.98436 32.4478 9.66985 31.3223C11.3727 30.1967 13.0235 28.9704 14.6221 27.6432C16.2207 26.3161 17.6368 24.863 18.8705 23.2838C20.1043 21.7047 21.0947 19.9912 21.8419 18.1432C22.5891 16.2785 22.9626 14.2626 22.9626 12.0955C22.9626 10.6172 22.7541 9.27321 22.3371 8.06366C21.9201 6.85411 21.3206 5.82095 20.5387 4.96419C19.7567 4.09063 18.8097 3.41866 17.6977 2.94828C16.603 2.4779 15.3692 2.24271 13.9965 2.24271C12.9713 2.24271 12.033 2.4779 11.1816 2.94828C10.3301 3.40186 9.60035 3.99823 8.99218 4.7374C8.38401 5.45977 7.90617 6.28294 7.55864 7.2069C7.2285 8.11406 7.06342 9.02122 7.06342 9.92838C7.06342 10.8355 7.16768 11.7427 7.37619 12.6499C7.60209 13.557 7.88879 14.439 8.23632 15.2958L0.964379 16.9337C0.825369 16.4129 0.7298 15.8921 0.677672 15.3714C0.625543 14.8506 0.599479 14.3214 0.599479 13.7838C0.599479 11.6503 0.947003 9.73519 1.64205 8.03846C2.35447 6.32493 3.35361 4.87179 4.63944 3.67904C5.92528 2.4863 7.47176 1.57913 9.27889 0.95756C11.086 0.319187 13.1017 0 15.3258 0C17.1329 0 18.914 0.193192 20.669 0.579576C22.424 0.94916 23.9878 1.58753 25.3606 2.49469C26.7507 3.40186 27.8714 4.61141 28.7229 6.12334C29.5743 7.63528 30 9.5336 30 11.8183Z" fill="#FFF5EE"/>
</svg>
