<svg width="30" height="38" viewBox="0 0 30 38" fill="none" xmlns="http://www.w3.org/2000/svg">
<path d="M14.2092 38C12.2213 38 10.3976 37.6818 8.73812 37.0455C7.07865 36.3919 5.62662 35.489 4.38202 34.3367C3.15471 33.1672 2.16076 31.7828 1.40017 30.1833C0.639585 28.5666 0.172861 26.7866 0 24.8432L8.86776 24.2498C8.53933 24.8518 8.32325 25.5311 8.21953 26.2878C8.11582 27.0274 8.06396 27.7411 8.06396 28.4291C8.06396 29.3062 8.21089 30.1833 8.50475 31.0604C8.8159 31.9203 9.2567 32.6943 9.82714 33.3822C10.3976 34.0702 11.089 34.6291 11.9015 35.0591C12.7139 35.4718 13.6301 35.6782 14.65 35.6782C15.9464 35.6782 17.1046 35.36 18.1245 34.7237C19.1616 34.0702 20.0432 33.2446 20.7692 32.2471C21.4952 31.2496 22.0484 30.1489 22.4287 28.945C22.8263 27.7411 23.0251 26.5802 23.0251 25.4623C23.0251 23.9833 22.7831 22.6246 22.299 21.3863C21.815 20.148 21.1236 19.0817 20.2247 18.1874C19.3258 17.2759 18.2282 16.5707 16.9317 16.072C15.6525 15.5732 14.2178 15.3238 12.6275 15.3238C11.9533 15.3238 11.2273 15.4098 10.4494 15.5818C9.67156 15.7366 8.88505 15.943 8.08989 16.201C7.29473 16.4417 6.51685 16.7169 5.75627 17.0265C5.01296 17.3188 4.33016 17.594 3.70786 17.852L2.2299 16.9749L5.67848 0.799728L26.8626 0L27.6664 7.97149C27.1132 7.45553 26.4131 6.99977 25.5661 6.60421C24.7191 6.20864 23.7943 5.86468 22.7917 5.5723C21.7891 5.26273 20.7347 5.01335 19.6283 4.82417C18.522 4.61779 17.433 4.4544 16.3613 4.33401C15.2895 4.19642 14.261 4.10183 13.2757 4.05024C12.3077 3.99864 11.452 3.97284 10.7087 3.97284H10.5013L8.32325 13.8534C9.46413 13.3546 10.6914 12.9934 12.0052 12.7699C13.3362 12.5291 14.624 12.4087 15.8686 12.4087C17.0268 12.4087 18.1763 12.5119 19.3172 12.7183C20.4754 12.9074 21.573 13.1998 22.6102 13.5954C23.6646 13.9909 24.6413 14.4983 25.5402 15.1174C26.4391 15.7194 27.2169 16.4331 27.8738 17.2587C28.5307 18.0842 29.0493 19.0215 29.4296 20.0706C29.8099 21.1197 30 22.2892 30 23.5791C30 25.9353 29.5938 28.0077 28.7813 29.7963C27.9862 31.585 26.8799 33.0898 25.4624 34.3109C24.0622 35.532 22.3941 36.4521 20.4581 37.0713C18.5393 37.6904 16.4564 38 14.2092 38Z" fill="#FFF5EE"/>
</svg>
