<svg width="28" height="38" viewBox="0 0 28 38" fill="none" xmlns="http://www.w3.org/2000/svg">
<path d="M13.6236 38C11.8265 38 10.1347 37.7588 8.54814 37.2764C6.96155 36.794 5.55305 36.0788 4.32264 35.1307C3.10841 34.1659 2.11275 32.9766 1.33565 31.5627C0.574733 30.1322 0.129517 28.4854 0 26.6225L6.87251 25.9488C6.84013 26.1983 6.81584 26.4644 6.79965 26.7472C6.79965 27.0134 6.79965 27.2878 6.79965 27.5706C6.79965 28.5686 6.95345 29.5251 7.26106 30.4399C7.56866 31.3548 8.01388 32.1615 8.5967 32.8601C9.19572 33.5588 9.93235 34.116 10.8066 34.5318C11.6808 34.9477 12.6846 35.1556 13.8179 35.1556C14.9835 35.1556 16.0358 34.9061 16.9748 34.4071C17.93 33.9081 18.7395 33.2594 19.4033 32.4609C20.0833 31.6625 20.6013 30.756 20.9575 29.7413C21.3137 28.7266 21.4918 27.7037 21.4918 26.6724C21.4918 25.508 21.2489 24.485 20.7632 23.6034C20.2937 22.7052 19.6542 21.9567 18.8448 21.3578C18.0353 20.759 17.1044 20.3099 16.052 20.0105C14.9997 19.7111 13.8907 19.5614 12.7251 19.5614C12.1099 19.5614 11.4785 19.6113 10.8309 19.7111L10.928 16.742C11.187 16.7919 11.438 16.8251 11.6808 16.8418C11.9237 16.8418 12.1746 16.8418 12.4337 16.8418C13.486 16.8418 14.4978 16.6588 15.4692 16.2928C16.4406 15.9269 17.2905 15.4196 18.0191 14.7708C18.7638 14.1221 19.3547 13.357 19.7918 12.4754C20.229 11.5772 20.4475 10.6041 20.4475 9.55614C20.4475 8.64128 20.2937 7.74305 19.9861 6.86146C19.6785 5.96323 19.2333 5.16481 18.6505 4.46619C18.0838 3.76756 17.3958 3.21033 16.5863 2.79448C15.7768 2.362 14.8702 2.14576 13.8664 2.14576C13.1217 2.14576 12.3932 2.30379 11.6808 2.61983C10.9685 2.91924 10.329 3.32677 9.76236 3.84242C9.21191 4.34143 8.7667 4.93193 8.42671 5.61392C8.08673 6.27927 7.91674 6.97789 7.91674 7.70978C7.91674 8.27533 7.9734 8.84088 8.08673 9.40644C8.20006 9.97198 8.35386 10.5126 8.54814 11.0282L1.74848 12.2508C1.7161 11.9348 1.69182 11.6271 1.67563 11.3276C1.65944 11.0282 1.65134 10.7205 1.65134 10.4045C1.65134 8.64128 2.0399 7.11097 2.817 5.81353C3.61029 4.49945 4.63024 3.40994 5.87684 2.54498C7.13964 1.68002 8.54814 1.03961 10.1023 0.623769C11.6727 0.207923 13.2269 0 14.765 0C16.2868 0 17.7681 0.182972 19.209 0.548917C20.6661 0.898227 21.9613 1.45546 23.0945 2.22062C24.244 2.98577 25.1668 3.97549 25.863 5.18976C26.5591 6.40403 26.9072 7.85949 26.9072 9.55614C26.9072 10.787 26.6563 11.8932 26.1544 12.8746C25.6525 13.856 24.9887 14.7043 24.1631 15.4196C23.3536 16.1182 22.4227 16.6921 21.3703 17.1412C20.318 17.5736 19.2414 17.8481 18.1405 17.9645C21.4108 18.0311 23.8716 18.9459 25.523 20.7091C27.1743 22.4557 28 24.9009 28 28.0446C28 29.2423 27.7814 30.3235 27.3443 31.2882C26.9072 32.2364 26.3244 33.0764 25.5958 33.8083C24.8673 34.5402 24.0173 35.1722 23.046 35.7045C22.0908 36.2368 21.0789 36.6693 20.0104 37.002C18.9419 37.3513 17.8572 37.6008 16.7563 37.7505C15.6554 37.9168 14.6112 38 13.6236 38Z" fill="#FFF5EE"/>
</svg>
