<svg width="28" height="38" viewBox="0 0 28 38" fill="none" xmlns="http://www.w3.org/2000/svg">
<path d="M28 26.0789H24.795L24.8944 29.6629C24.911 30.4085 24.9193 31.1032 24.9193 31.7472C24.9358 32.3911 24.9524 33.0265 24.9689 33.6535C24.9855 34.2805 25.0104 34.9159 25.0435 35.5599C25.0766 36.2038 25.1263 36.8901 25.1925 37.6187L17.9627 38L18.6832 26.0789H0.0496894C0.0165631 25.74 0 25.3926 0 25.0368C0 24.664 0 24.2997 0 23.9438C0 22.2154 0.0496894 20.3175 0.149068 18.2502C0.26501 16.1828 0.414079 14.0816 0.596273 11.9465C0.778468 9.81137 0.993789 7.71862 1.24224 5.66823C1.49068 3.60089 1.75569 1.71148 2.03727 0L10.0373 1.70301C9.59006 2.60111 9.15942 3.62631 8.74534 4.7786C8.34783 5.93088 7.97515 7.15095 7.62733 8.4388C7.2795 9.72664 6.95652 11.0569 6.65838 12.4294C6.37681 13.7851 6.1118 15.1322 5.86335 16.4709C5.63147 17.7926 5.42443 19.072 5.24224 20.309C5.06004 21.5291 4.91097 22.6475 4.79503 23.6642H18.8323L20.2733 0.203344H24.8447C24.8116 2.84682 24.795 5.48183 24.795 8.10836C24.795 10.7179 24.795 13.336 24.795 15.9625C24.795 17.2843 24.7867 18.5806 24.7702 19.8515C24.7536 21.1224 24.7619 22.3933 24.795 23.6642H28V26.0789Z" fill="#FFF5EE"/>
</svg>
