<svg width="40" height="40" viewBox="0 0 40 40" fill="none" xmlns="http://www.w3.org/2000/svg">
<path d="M13.3333 11.6663C13.5713 10.7141 14.1208 9.86868 14.8946 9.26467C15.6683 8.66067 16.6218 8.33273 17.6033 8.33301H23.23C24.2116 8.33273 25.165 8.66067 25.9388 9.26467C26.7125 9.86868 27.262 10.7141 27.5 11.6663C27.7364 12.6118 27.6432 13.6096 27.236 14.4951C26.8287 15.3805 26.1317 16.1005 25.26 16.5363L15.4667 21.433C14.3756 21.9793 13.4943 22.869 12.9583 23.9651C12.4223 25.0612 12.2613 26.3031 12.5 27.4997C12.735 28.6748 13.37 29.7321 14.2968 30.4918C15.2236 31.2514 16.385 31.6665 17.5833 31.6663H22.3967C23.3782 31.6666 24.3317 31.3387 25.1054 30.7347C25.8792 30.1307 26.4287 29.2853 26.6667 28.333M10 16.6663H30M10 23.333H30" stroke="black" stroke-width="3" stroke-linecap="round" stroke-linejoin="round"/>
</svg>
