<svg width="12" height="10" viewBox="0 0 12 10" fill="none" xmlns="http://www.w3.org/2000/svg">
<path d="M6.606 9.66192L11.8926 1.08573C11.9604 0.977371 11.9974 0.852893 11.9999 0.725405C12.0023 0.597916 11.97 0.472138 11.9064 0.361321C11.8455 0.251309 11.7557 0.159667 11.6466 0.0960707C11.5376 0.0324749 11.4132 -0.000713123 11.2866 1.16206e-05L0.713362 1.16206e-05C0.586829 -0.000713123 0.462447 0.0324749 0.353353 0.0960707C0.244258 0.159667 0.154499 0.251309 0.0935564 0.361321C0.0299749 0.472138 -0.00230122 0.597916 0.000127792 0.725405C0.0025568 0.852893 0.0396004 0.977371 0.107357 1.08573L5.394 9.66192C5.45725 9.76514 5.54623 9.85047 5.65237 9.90968C5.75851 9.96889 5.87823 10 6 10C6.12177 10 6.24149 9.96889 6.34763 9.90968C6.45377 9.85047 6.54275 9.76514 6.606 9.66192ZM5.8038 9.41311L0.516561 0.836916C0.494068 0.800604 0.481812 0.758969 0.481073 0.716355C0.480334 0.673741 0.491139 0.631712 0.51236 0.594655C0.531732 0.558511 0.560701 0.528313 0.59613 0.507329C0.631559 0.486345 0.672099 0.475375 0.713362 0.475607L11.2866 0.475607C11.3279 0.475375 11.3684 0.486345 11.4039 0.507329C11.4393 0.528313 11.4683 0.558511 11.4876 0.594655C11.5089 0.631712 11.5197 0.673741 11.5189 0.716355C11.5182 0.758969 11.5059 0.800604 11.4834 0.836916L6.1962 9.41311C6.17603 9.44692 6.14733 9.47493 6.11292 9.49439C6.07852 9.51384 6.0396 9.52408 6 9.52408C5.9604 9.52408 5.92148 9.51384 5.88708 9.49439C5.85267 9.47493 5.82397 9.44692 5.8038 9.41311Z" fill="#FCFFFF"/>
<path d="M5.8038 9.41311L0.516561 0.836916C0.494068 0.800604 0.481812 0.758969 0.481073 0.716355C0.480334 0.673741 0.491139 0.631712 0.51236 0.594655C0.531732 0.558511 0.560701 0.528313 0.59613 0.507329C0.631559 0.486345 0.672099 0.475375 0.713362 0.475607L11.2866 0.475607C11.3279 0.475375 11.3684 0.486345 11.4039 0.507329C11.4393 0.528313 11.4683 0.558511 11.4876 0.594655C11.5089 0.631712 11.5197 0.673741 11.5189 0.716355C11.5182 0.758969 11.5059 0.800604 11.4834 0.836916L6.1962 9.41311C6.17603 9.44692 6.14733 9.47493 6.11292 9.49439C6.07852 9.51384 6.0396 9.52408 6 9.52408C5.9604 9.52408 5.92148 9.51384 5.88708 9.49439C5.85267 9.47493 5.82397 9.44692 5.8038 9.41311Z" fill="#FCFFFF"/>
</svg>
