<svg width="48" height="48" viewBox="0 0 48 48" fill="none" xmlns="http://www.w3.org/2000/svg">
<g clip-path="url(#clip0_2556_6205)">
<path d="M48 24C48 10.7452 37.2548 0 24 0C10.7452 0 0 10.7452 0 24C0 37.2548 10.7452 48 24 48C37.2548 48 48 37.2548 48 24Z" fill="#A6B7A9"/>
<path d="M18.9279 14.5382C18.9279 15.9401 17.7128 17.0765 16.214 17.0765C14.7151 17.0765 13.5 15.9401 13.5 14.5382C13.5 13.1364 14.7151 12 16.214 12C17.7128 12 18.9279 13.1364 18.9279 14.5382Z" fill="#114A3E"/>
<path d="M13.8711 18.9424H18.5103V33.0002H13.8711V18.9424Z" fill="#114A3E"/>
<path d="M25.979 18.9422H21.3398V33H25.979C25.979 33 25.979 28.5744 25.979 25.8074C25.979 24.1464 26.5462 22.4783 28.8089 22.4783C31.3661 22.4783 31.3508 24.6518 31.3388 26.3357C31.3232 28.5366 31.3604 30.7829 31.3604 33H35.9996V25.5806C35.9603 20.8431 34.7258 18.6602 30.6646 18.6602C28.2527 18.6602 26.7577 19.7552 25.979 20.7458V18.9422Z" fill="#114A3E"/>
</g>
<defs>
<clipPath id="clip0_2556_6205">
<rect width="48" height="48" fill="white"/>
</clipPath>
</defs>
</svg>
