<svg width="49" height="49" viewBox="0 0 49 49" fill="none" xmlns="http://www.w3.org/2000/svg">
<g clip-path="url(#clip0_721_1806)">
<path d="M48.5 24.5C48.5 11.2452 37.7548 0.5 24.5 0.5C11.2452 0.5 0.5 11.2452 0.5 24.5C0.5 37.7548 11.2452 48.5 24.5 48.5C37.7548 48.5 48.5 37.7548 48.5 24.5Z" fill="#FCFCFC"/>
<path d="M19.4279 15.0382C19.4279 16.4401 18.2128 17.5765 16.714 17.5765C15.2151 17.5765 14 16.4401 14 15.0382C14 13.6364 15.2151 12.5 16.714 12.5C18.2128 12.5 19.4279 13.6364 19.4279 15.0382Z" fill="black"/>
<path d="M14.3711 19.4421H19.0103V33.5H14.3711V19.4421Z" fill="black"/>
<path d="M26.479 19.4422H21.8398V33.5H26.479C26.479 33.5 26.479 29.0744 26.479 26.3074C26.479 24.6464 27.0462 22.9783 29.3089 22.9783C31.8661 22.9783 31.8508 25.1518 31.8388 26.8357C31.8232 29.0366 31.8604 31.2829 31.8604 33.5H36.4996V26.0806C36.4603 21.3431 35.2258 19.1602 31.1646 19.1602C28.7527 19.1602 27.2577 20.2552 26.479 21.2458V19.4422Z" fill="black"/>
</g>
<defs>
<clipPath id="clip0_721_1806">
<rect width="48" height="48" fill="white" transform="translate(0.5 0.5)"/>
</clipPath>
</defs>
</svg>
