<svg width="24" height="24" viewBox="0 0 24 24" fill="none" xmlns="http://www.w3.org/2000/svg">
<g clip-path="url(#clip0_2556_6196)">
<path d="M5.14894 6.10473C5.24694 6.20173 5.37394 6.25073 5.50194 6.25073C5.62994 6.25073 5.75794 6.20173 5.85594 6.10373C6.05094 5.90873 6.04994 5.59173 5.85494 5.39673L2.84494 2.39673C2.64994 2.20273 2.33294 2.20173 2.13794 2.39773C1.94294 2.59373 1.94394 2.90973 2.13894 3.10473L5.14894 6.10473Z" fill="black"/>
<path d="M0.492188 8.25H4.49219C4.76819 8.25 4.99219 8.026 4.99219 7.75C4.99219 7.474 4.76819 7.25 4.49219 7.25H0.492188C0.216188 7.25 -0.0078125 7.474 -0.0078125 7.75C-0.0078125 8.026 0.216188 8.25 0.492188 8.25Z" fill="black"/>
<path d="M7.50781 5.25C7.78381 5.25 8.00781 5.026 8.00781 4.75V0.75C8.00781 0.474 7.78381 0.25 7.50781 0.25C7.23181 0.25 7.00781 0.474 7.00781 0.75V4.75C7.00781 5.026 7.23181 5.25 7.50781 5.25Z" fill="black"/>
<path d="M18.8449 17.3959C18.6499 17.2029 18.3329 17.2019 18.1379 17.3979C17.9429 17.5929 17.9439 17.9099 18.1389 18.1049L21.1489 21.1049C21.2469 21.2019 21.3739 21.2509 21.5019 21.2509C21.6299 21.2509 21.7579 21.2019 21.8559 21.1039C22.0509 20.9089 22.0499 20.5919 21.8549 20.3969L18.8449 17.3959Z" fill="black"/>
<path d="M23.5078 15.25H19.5078C19.2318 15.25 19.0078 15.474 19.0078 15.75C19.0078 16.026 19.2318 16.25 19.5078 16.25H23.5078C23.7838 16.25 24.0078 16.026 24.0078 15.75C24.0078 15.474 23.7838 15.25 23.5078 15.25Z" fill="black"/>
<path d="M16.4922 18.25C16.2162 18.25 15.9922 18.474 15.9922 18.75V22.75C15.9922 23.026 16.2162 23.25 16.4922 23.25C16.7682 23.25 16.9922 23.026 16.9922 22.75V18.75C16.9922 18.474 16.7682 18.25 16.4922 18.25Z" fill="black"/>
<path d="M22.6789 7.9273C24.4329 6.1733 24.4329 3.3183 22.6789 1.5643C20.9239 -0.191703 18.0689 -0.189703 16.3149 1.5643L11.9509 5.9273C11.7559 6.1223 11.7559 6.4393 11.9509 6.6343C12.1459 6.8293 12.4629 6.8293 12.6579 6.6343L17.0219 2.2713C18.3869 0.906297 20.6079 0.906297 21.9719 2.2713C23.3359 3.6353 23.3359 5.8563 21.9719 7.2203L15.6079 13.5843C14.2439 14.9503 12.0229 14.9483 10.6579 13.5843C10.4629 13.3893 10.1459 13.3893 9.95094 13.5843C9.75594 13.7793 9.75594 14.0963 9.95094 14.2913C10.8279 15.1683 11.9809 15.6073 13.1329 15.6073C14.2849 15.6073 15.4369 15.1683 16.3149 14.2913L22.6789 7.9273Z" fill="black"/>
<path d="M11.3287 17.8667L6.96469 22.2297C5.59969 23.5947 3.37869 23.5947 2.01469 22.2297C0.650688 20.8657 0.650688 18.6447 2.01469 17.2807L8.37869 10.9167C9.74369 9.55066 11.9647 9.55266 13.3287 10.9167C13.5237 11.1117 13.8407 11.1117 14.0357 10.9167C14.2307 10.7217 14.2307 10.4047 14.0357 10.2097C12.2817 8.45666 9.42769 8.45566 7.67169 10.2097L1.30769 16.5737C-0.446312 18.3277 -0.446312 21.1827 1.30769 22.9367C2.18469 23.8147 3.33769 24.2527 4.48969 24.2527C5.64169 24.2527 6.79469 23.8137 7.67169 22.9367L12.0357 18.5737C12.2307 18.3787 12.2307 18.0617 12.0357 17.8667C11.8407 17.6717 11.5237 17.6717 11.3287 17.8667Z" fill="black"/>
</g>
<defs>
<clipPath id="clip0_2556_6196">
<rect width="24" height="24" fill="white"/>
</clipPath>
</defs>
</svg>
