<svg width="24" height="24" viewBox="0 0 24 24" fill="none" xmlns="http://www.w3.org/2000/svg">
<path d="M12.4034 21.7906C12.2129 21.9274 11.9844 22.0009 11.75 22.0009C11.5156 22.0009 11.2871 21.9274 11.0966 21.7906C5.46265 17.7748 -0.516693 9.51458 5.52798 3.54574C7.18743 1.91335 9.42224 0.998978 11.75 1C14.0834 1 16.3223 1.91586 17.972 3.54458C24.0167 9.51342 18.0374 17.7725 12.4034 21.7906Z" stroke="black" stroke-width="1.5" stroke-linecap="round" stroke-linejoin="round"/>
<path d="M11.7494 11.5008C12.3683 11.5008 12.9618 11.2549 13.3994 10.8173C13.837 10.3798 14.0828 9.78624 14.0828 9.16739C14.0828 8.54853 13.837 7.95502 13.3994 7.51742C12.9618 7.07982 12.3683 6.83398 11.7494 6.83398C11.1306 6.83398 10.5371 7.07982 10.0995 7.51742C9.66186 7.95502 9.41602 8.54853 9.41602 9.16739C9.41602 9.78624 9.66186 10.3798 10.0995 10.8173C10.5371 11.2549 11.1306 11.5008 11.7494 11.5008Z" stroke="black" stroke-width="1.5" stroke-linecap="round" stroke-linejoin="round"/>
</svg>
