<svg width="100" height="100" viewBox="0 0 100 100" fill="none" xmlns="http://www.w3.org/2000/svg">
<path fill-rule="evenodd" clip-rule="evenodd" d="M56.3953 83.322C76.7268 79.6629 90.0255 59.2064 86.148 37.5591C82.2684 15.9141 62.6711 1.22474 42.3077 4.69891C35.0288 5.94539 28.3151 9.44817 23.0044 14.7693C27.9015 10.7831 33.7165 8.13668 39.9106 7.07302C60.2812 3.60067 79.7827 17.7062 83.5364 38.6259C87.2924 59.5455 73.8874 79.4099 53.5476 83.0598C50.9743 83.516 48.3576 83.6949 45.7409 83.5922C49.3001 84.0392 52.8868 83.9477 56.3953 83.322Z" fill="#A6B7A9"/>
<path fill-rule="evenodd" clip-rule="evenodd" d="M63.5547 83.3271C86.6473 79.1945 102.004 57.4468 97.9097 34.6762C93.8137 11.9055 71.807 -3.31728 48.6806 0.620058C40.4159 2.0322 32.7341 5.96249 26.6408 11.6443C32.2484 7.3754 38.8975 4.36157 45.933 3.15567C69.0644 -0.779597 90.9711 13.8284 94.9365 35.8353C98.9005 57.8421 83.4326 78.9659 60.3318 83.0894C57.409 83.6044 54.4418 83.828 51.4778 83.7557C55.5036 84.1783 59.5701 84.034 63.5547 83.3271Z" fill="#A6B7A9"/>
<path fill-rule="evenodd" clip-rule="evenodd" d="M60.3526 83.2468C81.8312 79.3906 95.9745 58.3204 91.9899 36.1136C88.0029 13.9077 67.3921 -1.07839 45.8794 2.58901C38.1912 3.9044 31.0866 7.42221 25.4531 12.9121C30.6442 8.79586 36.7942 6.16175 43.339 5.03932C64.8569 1.374 85.3709 15.7596 89.2288 37.221C93.0868 58.6831 78.8353 79.1438 57.3493 82.9919C54.6305 83.4723 51.8663 83.6684 49.1042 83.5771C52.8592 84.0179 56.6462 83.9071 60.3526 83.2468Z" fill="#A6B7A9"/>
<path fill-rule="evenodd" clip-rule="evenodd" d="M78.5433 30.7974C65.0393 15.3817 40.4006 14.4502 23.426 28.7141C6.45385 42.9787 3.53181 67.0701 16.8917 82.6068C21.6703 88.1565 28.1378 92.0858 35.4837 93.9002C29.5153 91.7589 24.254 88.1617 20.1825 83.4387C6.82389 67.895 9.28166 44.1826 25.6808 30.3912C42.0842 16.6009 66.2571 17.9225 79.7558 33.3484C81.458 35.303 82.9418 37.4352 84.1789 39.7098C82.7663 36.4611 80.8694 33.4602 78.5433 30.7974Z" fill="#A6B7A9"/>
<path fill-rule="evenodd" clip-rule="evenodd" d="M74.9195 24.7135C59.603 7.19183 32.7918 5.16725 14.9442 20.1848C-2.9027 35.2024 -5.07067 61.6109 10.0933 79.2595C15.5172 85.565 22.8383 90.0003 30.8968 92.2962C24.3211 89.6966 18.3236 85.6747 13.7036 80.3088C-1.46135 62.6532 0.220194 36.6428 17.4647 22.123C34.7093 7.60325 61.0309 10.0393 76.3442 27.5711C78.2765 29.7928 79.9754 32.2005 81.4136 34.7553C79.7434 31.1217 77.5567 27.7399 74.9195 24.7135Z" fill="#A6B7A9"/>
<path fill-rule="evenodd" clip-rule="evenodd" d="M76.4733 27.4746C62.2122 11.184 36.6104 9.84733 19.202 24.4849C1.79246 39.1225 -0.874611 64.2258 13.2357 80.6412C18.2824 86.5056 24.6251 90.5855 32.2824 92.5887C26.0488 90.2656 20.964 86.5483 16.6669 81.5584C2.55445 65.1368 4.7475 40.4208 21.5682 26.2687C38.392 12.1166 63.5166 13.8538 77.7713 30.1556C79.5682 32.2207 81.1404 34.4679 82.4591 36.8613C80.9435 33.449 78.9279 30.2885 76.4733 27.4746Z" fill="#A6B7A9"/>
<path fill-rule="evenodd" clip-rule="evenodd" d="M21.5444 36.6408C14.009 55.6029 24.6705 77.5082 45.3958 85.6432C66.1188 93.7783 89.1082 85.0815 96.8201 66.1893C99.5706 59.435 100.079 51.9652 98.281 44.717C99.1427 50.9179 98.3707 57.1818 96.0291 62.9325C88.3121 81.8287 65.8807 90.7522 45.8482 82.8962C25.816 75.0387 15.7214 53.356 23.2684 34.3928C24.2281 31.9963 25.4488 29.7096 26.9139 27.57C24.657 30.3171 22.8498 33.3707 21.5444 36.6408Z" fill="#A6B7A9"/>
<path fill-rule="evenodd" clip-rule="evenodd" d="M17.7742 42.6376C9.19412 64.1616 19.8899 88.4715 41.6987 97.0168C63.5075 105.561 88.2214 95.1275 96.987 73.6752C100.116 66.0065 100.791 57.3817 99.0913 49.2883C99.8243 56.2317 98.9048 63.5086 96.2448 70.0385C87.474 91.4947 63.3425 102.167 42.2617 93.9156C21.1808 85.6625 11.0842 61.5886 19.6753 40.0622C20.7661 37.3419 22.1355 34.7371 23.756 32.291C21.2745 35.4422 19.2588 38.9265 17.7742 42.6376Z" fill="#A6B7A9"/>
<path fill-rule="evenodd" clip-rule="evenodd" d="M19.529 39.9953C11.5592 60.024 22.3074 82.9584 43.5709 91.2996C64.8352 99.6398 88.6122 90.2492 96.7623 70.2926C99.6696 63.158 100.372 55.3348 98.5965 47.728C99.4171 54.2428 98.4562 60.8003 95.9839 66.8751C87.8275 86.8349 64.6207 96.4592 44.0666 88.4043C23.5126 80.3476 13.3481 57.6429 21.3269 37.6129C22.3436 35.0814 23.6271 32.6636 25.1593 30.3972C22.8044 33.3109 20.9073 36.5422 19.529 39.9953Z" fill="#A6B7A9"/>
<path fill-rule="evenodd" clip-rule="evenodd" d="M28.8997 32.743L29.0379 32.6069H34.6001L34.7383 32.743V33.0517C34.7383 34.4633 33.8752 35.6174 32.7306 36.2569C34.1065 36.8925 34.9362 38.2563 34.9362 39.6063V39.915L34.798 40.0511H29.0379L28.8997 39.915V32.743ZM29.1761 32.8791V39.7789H34.6599V39.6063C34.6599 38.2804 33.7886 36.9296 32.3585 36.3973L32.3475 36.1472C33.5465 35.5796 34.4619 34.4432 34.4619 33.0517V32.8791H29.1761ZM29.9183 33.6574L30.0564 33.5212H33.4454L33.5827 33.672C33.4172 35.1754 31.9353 36.0243 30.7205 36.0243H30.0564L29.9183 35.8882V33.6574ZM30.1946 33.7935V35.752H30.7205C31.7968 35.752 33.0605 35.0266 33.286 33.7935H30.1946ZM29.9183 36.7698L30.0564 36.6337H30.8897C32.2917 36.6337 33.5799 37.6396 33.7891 38.9841L33.6526 39.1409H30.0564L29.9183 39.0048V36.7698ZM30.1946 36.9059V38.8686H33.4857C33.2268 37.7467 32.1119 36.9059 30.8897 36.9059H30.1946Z" fill="#A6B7A9"/>
<path d="M32.4062 36.2681C33.6432 35.684 34.6 34.5054 34.6 33.0509V32.7429H29.0368V39.9149H34.7969V39.607C34.7969 38.2245 33.8929 36.8207 32.4062 36.2681ZM33.4453 33.6552C33.2896 35.0692 31.8854 35.8881 30.7215 35.8881H30.0556V33.6552H33.4453ZM30.0556 36.7697H30.8875C32.2288 36.7697 33.4556 37.7328 33.6535 39.0026H30.0556V36.7697Z" fill="#A6B7A9"/>
<path fill-rule="evenodd" clip-rule="evenodd" d="M38.1311 32.7918L38.26 32.6068H39.4026L39.5315 32.694L42.3387 39.866L42.2098 40.0511H41.0675L40.9387 39.9642L40.5938 39.0894L35.5954 40.1619L35.4285 40.0416C35.408 39.8268 35.3867 39.5931 35.3867 39.3826C35.3867 37.0859 36.8373 35.218 38.8748 34.6989L38.1311 32.7918ZM38.4611 32.8791L39.1892 34.7463L39.0901 34.928C37.1074 35.36 35.663 37.1457 35.663 39.3826C35.663 39.5323 35.6747 39.697 35.6894 39.8631L40.6504 38.7986L40.8086 38.8823L41.1621 39.7788H42.0085L39.3078 32.8791H38.4611ZM36.8092 38.6667L40.1517 37.9505L39.3358 35.8607C37.9004 36.1578 36.934 37.2546 36.8092 38.6667ZM36.522 38.8329C36.5851 37.173 37.7122 35.8669 39.399 35.5713L39.5521 35.6564L40.4675 38.0009L40.3679 38.1828L36.6894 38.9711L36.522 38.8329Z" fill="#A6B7A9"/>
<path d="M42.2109 39.9149L39.4034 32.7429H38.26L39.0603 34.792C37.0116 35.2429 35.5249 37.0868 35.5249 39.3826C35.5249 39.5867 35.5454 39.8125 35.566 40.0278L40.6819 38.9316L41.0675 39.9149H42.2109ZM36.6579 38.8391C36.7207 37.2412 37.8024 35.9906 39.4242 35.7043L40.3396 38.0498L36.6579 38.8391Z" fill="#A6B7A9"/>
<path fill-rule="evenodd" clip-rule="evenodd" d="M42.8234 32.7429L42.9615 32.6068H48.8866L49.0248 32.7429V33.7262L48.9894 33.8172L44.4537 38.7955H48.9373L49.0755 38.9316V39.9149L48.9373 40.0511H42.8544L42.7162 39.9149V38.9316L42.7515 38.8407L47.2871 33.8624H42.9615L42.8234 33.7262V32.7429ZM43.0997 32.8791V33.5901H47.5968L47.6996 33.8172L42.9925 38.9838V39.7788H48.7991V39.0678H44.144L44.0411 38.8407L48.7485 33.6741V32.8791H43.0997Z" fill="#A6B7A9"/>
<path d="M42.8555 39.915H48.9382V38.9317H44.1451L48.8867 33.7263V32.743H42.9595V33.7263H47.5969L42.8555 38.9317V39.915Z" fill="#A6B7A9"/>
<path fill-rule="evenodd" clip-rule="evenodd" d="M52.1682 32.7917L52.2972 32.6068H53.4385L53.5674 32.6939L56.377 39.8659L56.2481 40.0511H55.1058L54.977 39.9642L54.632 39.0894L49.6337 40.1619L49.4667 40.0416C49.4462 39.8268 49.4249 39.5931 49.4249 39.3826C49.4249 37.086 50.8755 35.218 52.9107 34.699L52.1682 32.7917ZM52.4982 32.8791L53.2251 34.7463L53.126 34.928C51.1457 35.3599 49.7013 37.1456 49.7013 39.3826C49.7013 39.5323 49.7129 39.697 49.7276 39.8631L54.6886 38.7986L54.8468 38.8823L55.2003 39.7788H56.0466L53.3437 32.8791H52.4982ZM50.8465 38.6667L54.1888 37.9505L53.3717 35.8607C51.9386 36.1579 50.9722 37.2545 50.8465 38.6667ZM50.5592 38.8328C50.6234 37.173 51.7504 35.8669 53.4348 35.5713L53.588 35.6564L54.5046 38.0008L54.4051 38.1828L50.7266 38.9711L50.5592 38.8328Z" fill="#A6B7A9"/>
<path d="M56.2481 39.915L53.4407 32.743H52.2973L53.0973 34.792C51.0489 35.243 49.5621 37.0868 49.5621 39.3826C49.5621 39.5868 49.5827 39.8125 49.6033 40.0278L54.7192 38.9317L55.1048 39.915H56.2481ZM50.6952 38.8391C50.758 37.2413 51.8396 35.9906 53.4612 35.7043L54.3768 38.0498L50.6952 38.8391Z" fill="#A6B7A9"/>
<path fill-rule="evenodd" clip-rule="evenodd" d="M28.1203 45.55L28.2584 45.4138H34.4939L34.6321 45.55V46.5333L34.4939 46.6694H32.0328V52.722L31.8947 52.8581H30.8566L30.7185 52.722V46.6694H28.2584L28.1203 46.5333V45.55ZM28.3966 45.6861V46.3971H30.8566L30.9948 46.5333V52.5858H31.7565V46.5333L31.8947 46.3971H34.3558V45.6861H28.3966Z" fill="#A6B7A9"/>
<path d="M34.496 45.55H28.2573V46.5333H30.8565V52.7209H31.8957V46.5333H34.496V45.55Z" fill="#A6B7A9"/>
<path fill-rule="evenodd" clip-rule="evenodd" d="M35.4496 45.55L35.5877 45.4138H41.1995L41.3377 45.55V45.8589C41.3377 47.48 40.5204 48.7196 39.2774 49.4421L41.8613 52.6371L41.7533 52.8581H40.4819L40.3731 52.8059L38.0924 49.9352C37.6625 50.0471 37.2148 50.1187 36.7447 50.1393V52.722L36.6065 52.8581H35.5877L35.4496 52.722V45.55ZM35.7259 45.6861V52.5858H36.4684V50.0077L36.6033 49.8716C37.1313 49.8597 37.6301 49.7801 38.1076 49.649L38.2535 49.6962L40.5492 52.5858H41.4665L38.9605 49.4871L39.0025 49.2827C40.2424 48.6181 41.0614 47.4351 41.0614 45.8589V45.6861H35.7259ZM36.4684 46.4441L36.6065 46.3079H40.119L40.2554 46.4654C39.9842 48.1485 38.5747 49.2133 36.6065 49.2133L36.4684 49.0772V46.4441ZM36.7447 46.5802V48.9392C38.4645 48.8929 39.6552 47.98 39.9531 46.5802H36.7447Z" fill="#A6B7A9"/>
<path d="M40.4851 52.7209H41.7533L39.0706 49.4023C40.3499 48.7155 41.2027 47.4861 41.2027 45.8568V45.55H35.5877V52.7209H36.6065V50.0067C37.1468 49.9965 37.657 49.9141 38.1458 49.7812L40.4851 52.7209ZM36.6065 49.0741V46.4409H40.1211C39.8614 48.0499 38.5201 49.0741 36.6065 49.0741Z" fill="#A6B7A9"/>
<path fill-rule="evenodd" clip-rule="evenodd" d="M44.5667 45.5988L44.6957 45.4138H45.838L45.9669 45.5009L48.7765 52.673L48.6476 52.8581H47.5053L47.3765 52.7713L47.0315 51.8964L42.0332 52.9689L41.8662 52.8486C41.8457 52.6341 41.8244 52.4004 41.8244 52.1896C41.8244 49.893 43.275 48.0251 45.3112 47.506L44.5667 45.5988ZM44.8968 45.6861L45.6257 47.5533L45.5265 47.735C43.5452 48.167 42.1008 49.9527 42.1008 52.1896C42.1008 52.3395 42.1124 52.5042 42.1271 52.6701L47.0881 51.6057L47.2463 51.6894L47.5998 52.5858H48.4461L45.7432 45.6861H44.8968ZM43.246 51.474L46.5874 50.7575L45.7722 48.6677C44.3381 48.9649 43.3717 50.0616 43.246 51.474ZM42.9587 51.6401C43.0229 49.98 44.1499 48.6739 45.8354 48.3783L45.9886 48.4635L46.9031 50.808L46.8035 50.9898L43.1261 51.7783L42.9587 51.6401Z" fill="#A6B7A9"/>
<path d="M48.6475 52.7209L45.84 45.55H44.6956L45.4966 47.599C43.4482 48.0499 41.9615 49.8938 41.9615 52.1886C41.9615 52.3938 41.9821 52.6195 42.0026 52.8338L47.1185 51.7376L47.5031 52.7209H48.6475ZM43.0945 51.6461C43.1574 50.0472 44.2379 48.7976 45.8606 48.5103L46.7751 50.8568L43.0945 51.6461Z" fill="#A6B7A9"/>
<path fill-rule="evenodd" clip-rule="evenodd" d="M49.6229 45.55L49.761 45.4138H50.8004L50.9386 45.55V52.722L50.8004 52.8581H49.761L49.6229 52.722V45.55ZM49.8992 45.6861V52.5858H50.6623V45.6861H49.8992Z" fill="#A6B7A9"/>
<path d="M49.7601 45.55H50.7994V52.7209H49.7601V45.55Z" fill="#A6B7A9"/>
<path fill-rule="evenodd" clip-rule="evenodd" d="M52.5334 45.55L52.6715 45.4138H53.7109L53.8127 45.4579L57.8369 49.7797V45.55L57.9751 45.4138H59.0131L59.1513 45.55V52.722L59.0131 52.8581H57.9751L57.8369 52.722V51.5683L53.8491 47.2929V52.722L53.7109 52.8581H52.6715L52.5334 52.722V45.55ZM52.8097 45.6861V52.5858H53.5728V46.9436L53.8126 46.8515L58.0768 51.4232L58.1132 51.5153V52.5858H58.875V45.6861H58.1132V50.1294L57.8733 50.2214L53.6502 45.6861H52.8097Z" fill="#A6B7A9"/>
<path d="M57.974 45.55V50.1294L53.7109 45.55H52.6715V52.7209H53.7109V46.9426L57.974 51.5122V52.7209H59.0142V45.55H57.974Z" fill="#A6B7A9"/>
<path fill-rule="evenodd" clip-rule="evenodd" d="M60.7484 45.55L60.8866 45.4138H65.7736L65.9118 45.55V46.513L65.7736 46.6491H62.0641V48.5185H65.459L65.5972 48.6546V49.6176L65.459 49.7537H62.0641V51.6228H65.7736L65.9118 51.759V52.722L65.7736 52.8581H60.8866L60.7484 52.722V45.55ZM61.0247 45.6861V52.5858H65.6354V51.8951H61.9259L61.7878 51.759V49.6176L61.9259 49.4815H65.3208V48.7907H61.9259L61.7878 48.6546V46.513L61.9259 46.3768H65.6354V45.6861H61.0247Z" fill="#A6B7A9"/>
<path d="M65.7725 46.513V45.55H60.8854V52.7209H65.7725V51.7579H61.9248V49.6176H65.46V48.6546H61.9248V46.513H65.7725Z" fill="#A6B7A9"/>
<path fill-rule="evenodd" clip-rule="evenodd" d="M67.1952 45.55L67.3333 45.4138H72.2201L72.3583 45.55V46.513L72.2201 46.6491H68.5096V48.5185H71.9068L72.045 48.6546V49.6176L71.9068 49.7537H68.5096V51.6228H72.2201L72.3583 51.759V52.722L72.2201 52.8581H67.3333L67.1952 52.722V45.55ZM67.4715 45.6861V52.5858H72.082V51.8951H68.3714L68.2333 51.759V49.6176L68.3714 49.4815H71.7687V48.7907H68.3714L68.2333 48.6546V46.513L68.3714 46.3768H72.082V45.6861H67.4715Z" fill="#A6B7A9"/>
<path d="M72.2194 46.513V45.55H67.3323V52.7209H72.2194V51.7579H68.3715V49.6176H71.9069V48.6546H68.3715V46.513H72.2194Z" fill="#A6B7A9"/>
<path fill-rule="evenodd" clip-rule="evenodd" d="M28.7965 58.356L28.9346 58.2198H29.974L30.1122 58.356V60.8551C30.1122 62.0016 30.4637 62.8843 31.1089 63.4814C31.7553 64.0797 32.7153 64.4085 33.966 64.4085H34.096V58.356L34.2342 58.2198H35.2733L35.4115 58.356V65.528L35.2733 65.6641H33.966C32.3456 65.6641 31.0498 65.2329 30.1582 64.4061C29.2655 63.5781 28.7965 62.3704 28.7965 60.8551V58.356ZM29.0728 58.4921V60.8551C29.0728 62.3142 29.5229 63.4429 30.3476 64.2078C31.1735 64.9738 32.3934 65.3918 33.966 65.3918H35.1352V58.4921H34.3724V64.5447L34.2342 64.6808H33.966C32.6682 64.6808 31.6321 64.3392 30.9197 63.6799C30.206 63.0194 29.8358 62.0573 29.8358 60.8551V58.4921H29.0728Z" fill="#A6B7A9"/>
<path d="M34.236 58.356V64.5447H33.965C31.4175 64.5447 29.9729 63.2027 29.9729 60.8559V58.356H28.9328V60.8559C28.9328 63.8274 30.7729 65.5279 33.965 65.5279H35.2754V58.356H34.236Z" fill="#A6B7A9"/>
<path fill-rule="evenodd" clip-rule="evenodd" d="M37.0096 58.356L37.1478 58.2198H38.1663L38.3045 58.356V61.357H38.9581C39.7958 61.357 40.4756 61.0958 40.9468 60.6009C41.4188 60.1051 41.6974 59.3578 41.6974 58.356L41.8356 58.2198H42.876L43.0142 58.356C43.0142 59.8571 42.4195 61.2702 41.1717 61.8885C42.5037 62.5148 43.1585 63.9605 43.1585 65.528L43.0204 65.6641H41.9799L41.8418 65.528C41.8418 64.6405 41.5871 63.8928 41.1068 63.3686C40.6283 62.8463 39.9125 62.5311 38.9581 62.5311H38.3045V65.528L38.1663 65.6641H37.1478L37.0096 65.528V58.356ZM37.286 58.4921V65.3918H38.0282V62.395L38.1663 62.2589H38.9581C39.978 62.2589 40.7731 62.598 41.3119 63.1861C41.8228 63.7437 42.0912 64.5118 42.1162 65.3918H42.8805C42.841 63.8338 42.1221 62.4918 40.7719 62.0195L40.7704 61.7635C42.0364 61.305 42.6985 59.9946 42.7361 58.4921H41.9721C41.9477 59.4774 41.6579 60.252 41.1483 60.7872C40.6145 61.3479 39.8555 61.6292 38.9581 61.6292H38.1663L38.0282 61.4931V58.4921H37.286Z" fill="#A6B7A9"/>
<path d="M40.8171 61.8912C42.2006 61.3893 42.8761 59.9449 42.8761 58.3559H41.8367C41.8367 60.4049 40.6922 61.491 38.9561 61.491H38.1664V58.3559H37.1468V65.5279H38.1664V62.3931H38.9561C40.9316 62.3931 41.9821 63.7046 41.9821 65.5279H43.0223C43.0223 63.8783 42.2832 62.4033 40.8171 61.8912Z" fill="#A6B7A9"/>
<path fill-rule="evenodd" clip-rule="evenodd" d="M44.2884 58.3559L44.4266 58.2198H50.0381L50.1763 58.3559V58.6649C50.1763 60.2859 49.3602 61.5256 48.115 62.2481L50.6988 65.4431L50.5908 65.664H49.3218L49.213 65.6119L46.9301 62.7412C46.5015 62.8531 46.0531 62.9247 45.5822 62.9453V65.5279L45.444 65.664H44.4266L44.2884 65.5279V58.3559ZM44.5647 58.4921V65.3918H45.3059V62.8136L45.4409 62.6775C45.97 62.6656 46.4698 62.5861 46.945 62.455L47.091 62.5021L49.389 65.3918H50.304L47.798 62.293L47.8401 62.0886C49.0823 61.424 49.8999 60.2411 49.8999 58.6649V58.4921H44.5647ZM45.3059 59.25L45.444 59.1139H48.9589L49.0953 59.2715C48.8216 60.9547 47.4123 62.0193 45.444 62.0193L45.3059 61.8831V59.25ZM45.5822 59.3861V61.7452C47.302 61.6989 48.4928 60.7862 48.7928 59.3861H45.5822Z" fill="#A6B7A9"/>
<path d="M49.3229 65.5279H50.5919L47.9093 62.2083C49.1878 61.5225 50.0403 60.2924 50.0403 58.6639V58.356H44.4256V65.5279H45.4441V62.8126C45.9854 62.8025 46.4948 62.7211 46.9834 62.5882L49.3229 65.5279ZM45.4441 61.8811V59.248H48.9589C48.699 60.8559 47.3576 61.8811 45.4441 61.8811Z" fill="#A6B7A9"/>
<path fill-rule="evenodd" clip-rule="evenodd" d="M53.4056 58.4048L53.5345 58.2198H54.6769L54.8058 58.307L57.613 65.479L57.4841 65.6641H56.3418L56.2129 65.5771L55.869 64.7025L50.8707 65.7749L50.7039 65.6553C50.6822 65.4402 50.661 65.2065 50.661 64.9956C50.661 62.6989 52.1116 60.8312 54.1491 60.312L53.4056 58.4048ZM53.7356 58.4921L54.4635 60.3593L54.3644 60.541C52.3816 60.9732 50.9373 62.7587 50.9373 64.9956C50.9373 65.1455 50.9489 65.3104 50.9641 65.4762L55.9257 64.4116L56.0839 64.4955L56.4364 65.3918H57.2827L54.5821 58.4921H53.7356ZM52.0836 64.28L55.4262 63.5635L54.6101 61.4737C53.1747 61.771 52.2092 62.8675 52.0836 64.28ZM51.7962 64.4461C51.8604 62.786 52.9864 61.4802 54.6732 61.1843L54.8264 61.2694L55.742 63.6139L55.6424 63.7958L51.9637 64.5843L51.7962 64.4461Z" fill="#A6B7A9"/>
<path d="M57.4851 65.5279L54.6779 58.356H53.5345L54.3345 60.405C52.2859 60.8559 50.7991 62.6998 50.7991 64.9956C50.7991 65.2 50.8197 65.4255 50.8413 65.6408L55.9572 64.5447L56.3418 65.5279H57.4851ZM51.9332 64.4523C51.9953 62.8543 53.0766 61.6036 54.6985 61.3173L55.6138 63.6628L51.9332 64.4523Z" fill="#A6B7A9"/>
<path fill-rule="evenodd" clip-rule="evenodd" d="M58.4605 58.356L58.5987 58.2198H59.6381L59.7762 58.356V65.528L59.6381 65.6641H58.5987L58.4605 65.528V58.356ZM58.7369 58.4921V65.3918H59.4999V58.4921H58.7369Z" fill="#A6B7A9"/>
<path d="M58.5977 58.3559H59.6379V65.5279H58.5977V58.3559Z" fill="#A6B7A9"/>
<path fill-rule="evenodd" clip-rule="evenodd" d="M61.3709 58.3559L61.509 58.2198H62.5495L62.6513 58.2639L66.6755 62.5859V58.3559L66.8136 58.2198H67.853L67.9912 58.3559V65.5279L67.853 65.664H66.8136L66.6755 65.5279V64.3743L62.6876 60.0991V65.5279L62.5495 65.664H61.509L61.3709 65.5279V58.3559ZM61.6472 58.4921V65.3918H62.4113V59.7498L62.6512 59.6577L66.9153 64.2291L66.9518 64.3212V65.3918H67.7148V58.4921H66.9518V62.9356L66.7118 63.0276L62.4887 58.4921H61.6472Z" fill="#A6B7A9"/>
<path d="M66.8126 58.3559V62.9356L62.5495 58.3559H61.509V65.5279H62.5495V59.7498L66.8126 64.3191V65.5279H67.8519V58.3559H66.8126Z" fill="#A6B7A9"/>
<path fill-rule="evenodd" clip-rule="evenodd" d="M69.5859 58.3559L69.724 58.2198H74.6111L74.7493 58.3559V59.3189L74.6111 59.4551H70.9016V61.3244H74.2978L74.436 61.4605V62.4235L74.2978 62.5597H70.9016V64.4288H74.6111L74.7493 64.5649V65.5279L74.6111 65.664H69.724L69.5859 65.5279V58.3559ZM69.8622 58.4921V65.3918H74.4729V64.701H70.7634L70.6253 64.5649V62.4235L70.7634 62.2874H74.1596V61.5967H70.7634L70.6253 61.4605V59.3189L70.7634 59.1828H74.4729V58.4921H69.8622Z" fill="#A6B7A9"/>
<path d="M74.6101 59.319V58.356H69.7231V65.5279H74.6101V64.5649H70.7635V62.4236H74.2987V61.4606H70.7635V59.319H74.6101Z" fill="#A6B7A9"/>
</svg>
