<svg width="100" height="101" viewBox="0 0 100 101" fill="none" xmlns="http://www.w3.org/2000/svg">
<path fill-rule="evenodd" clip-rule="evenodd" d="M56.3953 83.822C76.7268 80.1629 90.0255 59.7064 86.148 38.0591C82.2684 16.4141 62.6711 1.72474 42.3077 5.19891C35.0288 6.44539 28.3151 9.94817 23.0044 15.2693C27.9015 11.2831 33.7165 8.63668 39.9106 7.57302C60.2812 4.10067 79.7827 18.2062 83.5364 39.1259C87.2924 60.0455 73.8874 79.9099 53.5476 83.5598C50.9743 84.016 48.3576 84.1949 45.7409 84.0922C49.3001 84.5392 52.8868 84.4477 56.3953 83.822Z" fill="#FCFFFF"/>
<path fill-rule="evenodd" clip-rule="evenodd" d="M63.5547 83.8271C86.6473 79.6945 102.004 57.9468 97.9097 35.1762C93.8137 12.4055 71.807 -2.81728 48.6806 1.12006C40.4159 2.5322 32.7341 6.46249 26.6408 12.1443C32.2484 7.8754 38.8975 4.86157 45.933 3.65567C69.0644 -0.279597 90.9711 14.3284 94.9365 36.3353C98.9005 58.3421 83.4326 79.4659 60.3318 83.5894C57.409 84.1044 54.4418 84.328 51.4778 84.2557C55.5036 84.6783 59.5701 84.534 63.5547 83.8271Z" fill="#FCFFFF"/>
<path fill-rule="evenodd" clip-rule="evenodd" d="M60.3526 83.7468C81.8312 79.8906 95.9745 58.8204 91.9899 36.6136C88.0029 14.4077 67.3921 -0.57839 45.8794 3.08901C38.1912 4.4044 31.0866 7.92221 25.4531 13.4121C30.6442 9.29586 36.7942 6.66175 43.339 5.53932C64.8569 1.874 85.3709 16.2596 89.2288 37.721C93.0868 59.1831 78.8353 79.6438 57.3493 83.4919C54.6305 83.9723 51.8663 84.1684 49.1042 84.0771C52.8592 84.5179 56.6462 84.4071 60.3526 83.7468Z" fill="#FCFFFF"/>
<path fill-rule="evenodd" clip-rule="evenodd" d="M78.5433 31.2974C65.0393 15.8817 40.4006 14.9502 23.426 29.2141C6.45385 43.4787 3.53181 67.5701 16.8917 83.1068C21.6703 88.6565 28.1378 92.5858 35.4837 94.4002C29.5153 92.2589 24.254 88.6617 20.1825 83.9387C6.82389 68.395 9.28166 44.6826 25.6808 30.8912C42.0842 17.1009 66.2571 18.4225 79.7558 33.8484C81.458 35.803 82.9418 37.9352 84.1789 40.2098C82.7663 36.9611 80.8694 33.9602 78.5433 31.2974Z" fill="#FCFFFF"/>
<path fill-rule="evenodd" clip-rule="evenodd" d="M74.9195 25.2135C59.603 7.69183 32.7918 5.66725 14.9442 20.6848C-2.9027 35.7024 -5.07067 62.1109 10.0933 79.7595C15.5172 86.065 22.8383 90.5003 30.8968 92.7962C24.3211 90.1966 18.3236 86.1747 13.7036 80.8088C-1.46135 63.1532 0.220194 37.1428 17.4647 22.623C34.7093 8.10325 61.0309 10.5393 76.3442 28.0711C78.2765 30.2928 79.9754 32.7005 81.4136 35.2553C79.7434 31.6217 77.5567 28.2399 74.9195 25.2135Z" fill="#FCFFFF"/>
<path fill-rule="evenodd" clip-rule="evenodd" d="M76.4733 27.9746C62.2122 11.684 36.6104 10.3473 19.202 24.9849C1.79246 39.6225 -0.874611 64.7258 13.2357 81.1412C18.2824 87.0056 24.6251 91.0855 32.2824 93.0887C26.0488 90.7656 20.964 87.0483 16.6669 82.0584C2.55445 65.6368 4.7475 40.9208 21.5682 26.7687C38.392 12.6166 63.5166 14.3538 77.7713 30.6556C79.5682 32.7207 81.1404 34.9679 82.4591 37.3613C80.9435 33.949 78.9279 30.7885 76.4733 27.9746Z" fill="#FCFFFF"/>
<path fill-rule="evenodd" clip-rule="evenodd" d="M21.5444 37.1408C14.009 56.1029 24.6705 78.0082 45.3958 86.1432C66.1188 94.2783 89.1082 85.5815 96.8201 66.6893C99.5706 59.935 100.079 52.4652 98.281 45.217C99.1427 51.4179 98.3707 57.6818 96.0291 63.4325C88.3121 82.3287 65.8807 91.2522 45.8482 83.3962C25.816 75.5387 15.7214 53.856 23.2684 34.8928C24.2281 32.4963 25.4488 30.2096 26.9139 28.07C24.657 30.8171 22.8498 33.8707 21.5444 37.1408Z" fill="#FCFFFF"/>
<path fill-rule="evenodd" clip-rule="evenodd" d="M17.7742 43.1376C9.19412 64.6616 19.8899 88.9715 41.6987 97.5168C63.5075 106.061 88.2214 95.6275 96.987 74.1752C100.116 66.5065 100.791 57.8817 99.0913 49.7883C99.8243 56.7317 98.9048 64.0086 96.2448 70.5385C87.474 91.9947 63.3425 102.667 42.2617 94.4156C21.1808 86.1625 11.0842 62.0886 19.6753 40.5622C20.7661 37.8419 22.1355 35.2371 23.756 32.791C21.2745 35.9422 19.2588 39.4265 17.7742 43.1376Z" fill="#FCFFFF"/>
<path fill-rule="evenodd" clip-rule="evenodd" d="M19.529 40.4953C11.5592 60.524 22.3074 83.4584 43.5709 91.7996C64.8352 100.14 88.6122 90.7492 96.7623 70.7926C99.6696 63.658 100.372 55.8348 98.5965 48.228C99.4171 54.7428 98.4562 61.3003 95.9839 67.3751C87.8275 87.3349 64.6207 96.9592 44.0666 88.9043C23.5126 80.8476 13.3481 58.1429 21.3269 38.1129C22.3436 35.5814 23.6271 33.1636 25.1593 30.8972C22.8044 33.8109 20.9073 37.0422 19.529 40.4953Z" fill="#FCFFFF"/>
<path fill-rule="evenodd" clip-rule="evenodd" d="M28.8997 33.243L29.0379 33.1069H34.6001L34.7383 33.243V33.5517C34.7383 34.9633 33.8752 36.1174 32.7306 36.7569C34.1065 37.3925 34.9362 38.7563 34.9362 40.1063V40.415L34.798 40.5511H29.0379L28.8997 40.415V33.243ZM29.1761 33.3791V40.2789H34.6599V40.1063C34.6599 38.7804 33.7886 37.4296 32.3585 36.8973L32.3475 36.6472C33.5465 36.0796 34.4619 34.9432 34.4619 33.5517V33.3791H29.1761ZM29.9183 34.1574L30.0564 34.0212H33.4454L33.5827 34.172C33.4172 35.6754 31.9353 36.5243 30.7205 36.5243H30.0564L29.9183 36.3882V34.1574ZM30.1946 34.2935V36.252H30.7205C31.7968 36.252 33.0605 35.5266 33.286 34.2935H30.1946ZM29.9183 37.2698L30.0564 37.1337H30.8897C32.2917 37.1337 33.5799 38.1396 33.7891 39.4841L33.6526 39.6409H30.0564L29.9183 39.5048V37.2698ZM30.1946 37.4059V39.3686H33.4857C33.2268 38.2467 32.1119 37.4059 30.8897 37.4059H30.1946Z" fill="#FCFFFF"/>
<path d="M32.4062 36.7681C33.6432 36.184 34.6 35.0054 34.6 33.5509V33.2429H29.0368V40.4149H34.7969V40.107C34.7969 38.7245 33.8929 37.3207 32.4062 36.7681ZM33.4453 34.1552C33.2896 35.5692 31.8854 36.3881 30.7215 36.3881H30.0556V34.1552H33.4453ZM30.0556 37.2697H30.8875C32.2288 37.2697 33.4556 38.2328 33.6535 39.5026H30.0556V37.2697Z" fill="#FCFFFF"/>
<path fill-rule="evenodd" clip-rule="evenodd" d="M38.1311 33.2918L38.26 33.1068H39.4026L39.5315 33.194L42.3387 40.366L42.2098 40.5511H41.0675L40.9387 40.4642L40.5938 39.5894L35.5954 40.6619L35.4285 40.5416C35.408 40.3268 35.3867 40.0931 35.3867 39.8826C35.3867 37.5859 36.8373 35.718 38.8748 35.1989L38.1311 33.2918ZM38.4611 33.3791L39.1892 35.2463L39.0901 35.428C37.1074 35.86 35.663 37.6457 35.663 39.8826C35.663 40.0323 35.6747 40.197 35.6894 40.3631L40.6504 39.2986L40.8086 39.3823L41.1621 40.2788H42.0085L39.3078 33.3791H38.4611ZM36.8092 39.1667L40.1517 38.4505L39.3358 36.3607C37.9004 36.6578 36.934 37.7546 36.8092 39.1667ZM36.522 39.3329C36.5851 37.673 37.7122 36.3669 39.399 36.0713L39.5521 36.1564L40.4675 38.5009L40.3679 38.6828L36.6894 39.4711L36.522 39.3329Z" fill="#FCFFFF"/>
<path d="M42.2109 40.4149L39.4034 33.2429H38.26L39.0603 35.292C37.0116 35.7429 35.5249 37.5868 35.5249 39.8826C35.5249 40.0867 35.5454 40.3125 35.566 40.5278L40.6819 39.4316L41.0675 40.4149H42.2109ZM36.6579 39.3391C36.7207 37.7412 37.8024 36.4906 39.4242 36.2043L40.3396 38.5498L36.6579 39.3391Z" fill="#FCFFFF"/>
<path fill-rule="evenodd" clip-rule="evenodd" d="M42.8234 33.2429L42.9615 33.1068H48.8866L49.0248 33.2429V34.2262L48.9894 34.3172L44.4537 39.2955H48.9373L49.0755 39.4316V40.4149L48.9373 40.5511H42.8544L42.7162 40.4149V39.4316L42.7515 39.3407L47.2871 34.3624H42.9615L42.8234 34.2262V33.2429ZM43.0997 33.3791V34.0901H47.5968L47.6996 34.3172L42.9925 39.4838V40.2788H48.7991V39.5678H44.144L44.0411 39.3407L48.7485 34.1741V33.3791H43.0997Z" fill="#FCFFFF"/>
<path d="M42.8555 40.415H48.9382V39.4317H44.1451L48.8867 34.2263V33.243H42.9595V34.2263H47.5969L42.8555 39.4317V40.415Z" fill="#FCFFFF"/>
<path fill-rule="evenodd" clip-rule="evenodd" d="M52.1682 33.2917L52.2972 33.1068H53.4385L53.5674 33.1939L56.377 40.3659L56.2481 40.5511H55.1058L54.977 40.4642L54.632 39.5894L49.6337 40.6619L49.4667 40.5416C49.4462 40.3268 49.4249 40.0931 49.4249 39.8826C49.4249 37.586 50.8755 35.718 52.9107 35.199L52.1682 33.2917ZM52.4982 33.3791L53.2251 35.2463L53.126 35.428C51.1457 35.8599 49.7013 37.6456 49.7013 39.8826C49.7013 40.0323 49.7129 40.197 49.7276 40.3631L54.6886 39.2986L54.8468 39.3823L55.2003 40.2788H56.0466L53.3437 33.3791H52.4982ZM50.8465 39.1667L54.1888 38.4505L53.3717 36.3607C51.9386 36.6579 50.9722 37.7545 50.8465 39.1667ZM50.5592 39.3328C50.6234 37.673 51.7504 36.3669 53.4348 36.0713L53.588 36.1564L54.5046 38.5008L54.4051 38.6828L50.7266 39.4711L50.5592 39.3328Z" fill="#FCFFFF"/>
<path d="M56.2481 40.415L53.4407 33.243H52.2973L53.0973 35.292C51.0489 35.743 49.5621 37.5868 49.5621 39.8826C49.5621 40.0868 49.5827 40.3125 49.6033 40.5278L54.7192 39.4317L55.1048 40.415H56.2481ZM50.6952 39.3391C50.758 37.7413 51.8396 36.4906 53.4612 36.2043L54.3768 38.5498L50.6952 39.3391Z" fill="#FCFFFF"/>
<path fill-rule="evenodd" clip-rule="evenodd" d="M28.1203 46.05L28.2584 45.9138H34.4939L34.6321 46.05V47.0333L34.4939 47.1694H32.0328V53.222L31.8947 53.3581H30.8566L30.7185 53.222V47.1694H28.2584L28.1203 47.0333V46.05ZM28.3966 46.1861V46.8971H30.8566L30.9948 47.0333V53.0858H31.7565V47.0333L31.8947 46.8971H34.3558V46.1861H28.3966Z" fill="#FCFFFF"/>
<path d="M34.496 46.05H28.2573V47.0333H30.8565V53.2209H31.8957V47.0333H34.496V46.05Z" fill="#FCFFFF"/>
<path fill-rule="evenodd" clip-rule="evenodd" d="M35.4496 46.05L35.5877 45.9138H41.1995L41.3377 46.05V46.3589C41.3377 47.98 40.5204 49.2196 39.2774 49.9421L41.8613 53.1371L41.7533 53.3581H40.4819L40.3731 53.3059L38.0924 50.4352C37.6625 50.5471 37.2148 50.6187 36.7447 50.6393V53.222L36.6065 53.3581H35.5877L35.4496 53.222V46.05ZM35.7259 46.1861V53.0858H36.4684V50.5077L36.6033 50.3716C37.1313 50.3597 37.6301 50.2801 38.1076 50.149L38.2535 50.1962L40.5492 53.0858H41.4665L38.9605 49.9871L39.0025 49.7827C40.2424 49.1181 41.0614 47.9351 41.0614 46.3589V46.1861H35.7259ZM36.4684 46.9441L36.6065 46.8079H40.119L40.2554 46.9654C39.9842 48.6485 38.5747 49.7133 36.6065 49.7133L36.4684 49.5772V46.9441ZM36.7447 47.0802V49.4392C38.4645 49.3929 39.6552 48.48 39.9531 47.0802H36.7447Z" fill="#FCFFFF"/>
<path d="M40.4851 53.2209H41.7533L39.0706 49.9023C40.3499 49.2155 41.2027 47.9861 41.2027 46.3568V46.05H35.5877V53.2209H36.6065V50.5067C37.1468 50.4965 37.657 50.4141 38.1458 50.2812L40.4851 53.2209ZM36.6065 49.5741V46.9409H40.1211C39.8614 48.5499 38.5201 49.5741 36.6065 49.5741Z" fill="#FCFFFF"/>
<path fill-rule="evenodd" clip-rule="evenodd" d="M44.5667 46.0988L44.6957 45.9138H45.838L45.9669 46.0009L48.7765 53.173L48.6476 53.3581H47.5053L47.3765 53.2713L47.0315 52.3964L42.0332 53.4689L41.8662 53.3486C41.8457 53.1341 41.8244 52.9004 41.8244 52.6896C41.8244 50.393 43.275 48.5251 45.3112 48.006L44.5667 46.0988ZM44.8968 46.1861L45.6257 48.0533L45.5265 48.235C43.5452 48.667 42.1008 50.4527 42.1008 52.6896C42.1008 52.8395 42.1124 53.0042 42.1271 53.1701L47.0881 52.1057L47.2463 52.1894L47.5998 53.0858H48.4461L45.7432 46.1861H44.8968ZM43.246 51.974L46.5874 51.2575L45.7722 49.1677C44.3381 49.4649 43.3717 50.5616 43.246 51.974ZM42.9587 52.1401C43.0229 50.48 44.1499 49.1739 45.8354 48.8783L45.9886 48.9635L46.9031 51.308L46.8035 51.4898L43.1261 52.2783L42.9587 52.1401Z" fill="#FCFFFF"/>
<path d="M48.6475 53.2209L45.84 46.05H44.6956L45.4966 48.099C43.4482 48.5499 41.9615 50.3938 41.9615 52.6886C41.9615 52.8938 41.9821 53.1195 42.0026 53.3338L47.1185 52.2376L47.5031 53.2209H48.6475ZM43.0945 52.1461C43.1574 50.5472 44.2379 49.2976 45.8606 49.0103L46.7751 51.3568L43.0945 52.1461Z" fill="#FCFFFF"/>
<path fill-rule="evenodd" clip-rule="evenodd" d="M49.6229 46.05L49.761 45.9138H50.8004L50.9386 46.05V53.222L50.8004 53.3581H49.761L49.6229 53.222V46.05ZM49.8992 46.1861V53.0858H50.6623V46.1861H49.8992Z" fill="#FCFFFF"/>
<path d="M49.7601 46.05H50.7994V53.2209H49.7601V46.05Z" fill="#FCFFFF"/>
<path fill-rule="evenodd" clip-rule="evenodd" d="M52.5334 46.05L52.6715 45.9138H53.7109L53.8127 45.9579L57.8369 50.2797V46.05L57.9751 45.9138H59.0131L59.1513 46.05V53.222L59.0131 53.3581H57.9751L57.8369 53.222V52.0683L53.8491 47.7929V53.222L53.7109 53.3581H52.6715L52.5334 53.222V46.05ZM52.8097 46.1861V53.0858H53.5728V47.4436L53.8126 47.3515L58.0768 51.9232L58.1132 52.0153V53.0858H58.875V46.1861H58.1132V50.6294L57.8733 50.7214L53.6502 46.1861H52.8097Z" fill="#FCFFFF"/>
<path d="M57.974 46.05V50.6294L53.7109 46.05H52.6715V53.2209H53.7109V47.4426L57.974 52.0122V53.2209H59.0142V46.05H57.974Z" fill="#FCFFFF"/>
<path fill-rule="evenodd" clip-rule="evenodd" d="M60.7484 46.05L60.8866 45.9138H65.7736L65.9118 46.05V47.013L65.7736 47.1491H62.0641V49.0185H65.459L65.5972 49.1546V50.1176L65.459 50.2537H62.0641V52.1228H65.7736L65.9118 52.259V53.222L65.7736 53.3581H60.8866L60.7484 53.222V46.05ZM61.0247 46.1861V53.0858H65.6354V52.3951H61.9259L61.7878 52.259V50.1176L61.9259 49.9815H65.3208V49.2907H61.9259L61.7878 49.1546V47.013L61.9259 46.8768H65.6354V46.1861H61.0247Z" fill="#FCFFFF"/>
<path d="M65.7725 47.013V46.05H60.8854V53.2209H65.7725V52.2579H61.9248V50.1176H65.46V49.1546H61.9248V47.013H65.7725Z" fill="#FCFFFF"/>
<path fill-rule="evenodd" clip-rule="evenodd" d="M67.1952 46.05L67.3333 45.9138H72.2201L72.3583 46.05V47.013L72.2201 47.1491H68.5096V49.0185H71.9068L72.045 49.1546V50.1176L71.9068 50.2537H68.5096V52.1228H72.2201L72.3583 52.259V53.222L72.2201 53.3581H67.3333L67.1952 53.222V46.05ZM67.4715 46.1861V53.0858H72.082V52.3951H68.3714L68.2333 52.259V50.1176L68.3714 49.9815H71.7687V49.2907H68.3714L68.2333 49.1546V47.013L68.3714 46.8768H72.082V46.1861H67.4715Z" fill="#FCFFFF"/>
<path d="M72.2194 47.013V46.05H67.3323V53.2209H72.2194V52.2579H68.3715V50.1176H71.9069V49.1546H68.3715V47.013H72.2194Z" fill="#FCFFFF"/>
<path fill-rule="evenodd" clip-rule="evenodd" d="M28.7965 58.856L28.9346 58.7198H29.974L30.1122 58.856V61.3551C30.1122 62.5016 30.4637 63.3843 31.1089 63.9814C31.7553 64.5797 32.7153 64.9085 33.966 64.9085H34.096V58.856L34.2342 58.7198H35.2733L35.4115 58.856V66.028L35.2733 66.1641H33.966C32.3456 66.1641 31.0498 65.7329 30.1582 64.9061C29.2655 64.0781 28.7965 62.8704 28.7965 61.3551V58.856ZM29.0728 58.9921V61.3551C29.0728 62.8142 29.5229 63.9429 30.3476 64.7078C31.1735 65.4738 32.3934 65.8918 33.966 65.8918H35.1352V58.9921H34.3724V65.0447L34.2342 65.1808H33.966C32.6682 65.1808 31.6321 64.8392 30.9197 64.1799C30.206 63.5194 29.8358 62.5573 29.8358 61.3551V58.9921H29.0728Z" fill="#FCFFFF"/>
<path d="M34.236 58.856V65.0447H33.965C31.4175 65.0447 29.9729 63.7027 29.9729 61.3559V58.856H28.9328V61.3559C28.9328 64.3274 30.7729 66.0279 33.965 66.0279H35.2754V58.856H34.236Z" fill="#FCFFFF"/>
<path fill-rule="evenodd" clip-rule="evenodd" d="M37.0096 58.856L37.1478 58.7198H38.1663L38.3045 58.856V61.857H38.9581C39.7958 61.857 40.4756 61.5958 40.9468 61.1009C41.4188 60.6051 41.6974 59.8578 41.6974 58.856L41.8356 58.7198H42.876L43.0142 58.856C43.0142 60.3571 42.4195 61.7702 41.1717 62.3885C42.5037 63.0148 43.1585 64.4605 43.1585 66.028L43.0204 66.1641H41.9799L41.8418 66.028C41.8418 65.1405 41.5871 64.3928 41.1068 63.8686C40.6283 63.3463 39.9125 63.0311 38.9581 63.0311H38.3045V66.028L38.1663 66.1641H37.1478L37.0096 66.028V58.856ZM37.286 58.9921V65.8918H38.0282V62.895L38.1663 62.7589H38.9581C39.978 62.7589 40.7731 63.098 41.3119 63.6861C41.8228 64.2437 42.0912 65.0118 42.1162 65.8918H42.8805C42.841 64.3338 42.1221 62.9918 40.7719 62.5195L40.7704 62.2635C42.0364 61.805 42.6985 60.4946 42.7361 58.9921H41.9721C41.9477 59.9774 41.6579 60.752 41.1483 61.2872C40.6145 61.8479 39.8555 62.1292 38.9581 62.1292H38.1663L38.0282 61.9931V58.9921H37.286Z" fill="#FCFFFF"/>
<path d="M40.8171 62.3912C42.2006 61.8893 42.8761 60.4449 42.8761 58.8559H41.8367C41.8367 60.9049 40.6922 61.991 38.9561 61.991H38.1664V58.8559H37.1468V66.0279H38.1664V62.8931H38.9561C40.9316 62.8931 41.9821 64.2046 41.9821 66.0279H43.0223C43.0223 64.3783 42.2832 62.9033 40.8171 62.3912Z" fill="#FCFFFF"/>
<path fill-rule="evenodd" clip-rule="evenodd" d="M44.2884 58.8559L44.4266 58.7198H50.0381L50.1763 58.8559V59.1649C50.1763 60.7859 49.3602 62.0256 48.115 62.7481L50.6988 65.9431L50.5908 66.164H49.3218L49.213 66.1119L46.9301 63.2412C46.5015 63.3531 46.0531 63.4247 45.5822 63.4453V66.0279L45.444 66.164H44.4266L44.2884 66.0279V58.8559ZM44.5647 58.9921V65.8918H45.3059V63.3136L45.4409 63.1775C45.97 63.1656 46.4698 63.0861 46.945 62.955L47.091 63.0021L49.389 65.8918H50.304L47.798 62.793L47.8401 62.5886C49.0823 61.924 49.8999 60.7411 49.8999 59.1649V58.9921H44.5647ZM45.3059 59.75L45.444 59.6139H48.9589L49.0953 59.7715C48.8216 61.4547 47.4123 62.5193 45.444 62.5193L45.3059 62.3831V59.75ZM45.5822 59.8861V62.2452C47.302 62.1989 48.4928 61.2862 48.7928 59.8861H45.5822Z" fill="#FCFFFF"/>
<path d="M49.3229 66.0279H50.5919L47.9093 62.7083C49.1878 62.0225 50.0403 60.7924 50.0403 59.1639V58.856H44.4256V66.0279H45.4441V63.3126C45.9854 63.3025 46.4948 63.2211 46.9834 63.0882L49.3229 66.0279ZM45.4441 62.3811V59.748H48.9589C48.699 61.3559 47.3576 62.3811 45.4441 62.3811Z" fill="#FCFFFF"/>
<path fill-rule="evenodd" clip-rule="evenodd" d="M53.4056 58.9048L53.5345 58.7198H54.6769L54.8058 58.807L57.613 65.979L57.4841 66.1641H56.3418L56.2129 66.0771L55.869 65.2025L50.8707 66.2749L50.7039 66.1553C50.6822 65.9402 50.661 65.7065 50.661 65.4956C50.661 63.1989 52.1116 61.3312 54.1491 60.812L53.4056 58.9048ZM53.7356 58.9921L54.4635 60.8593L54.3644 61.041C52.3816 61.4732 50.9373 63.2587 50.9373 65.4956C50.9373 65.6455 50.9489 65.8104 50.9641 65.9762L55.9257 64.9116L56.0839 64.9955L56.4364 65.8918H57.2827L54.5821 58.9921H53.7356ZM52.0836 64.78L55.4262 64.0635L54.6101 61.9737C53.1747 62.271 52.2092 63.3675 52.0836 64.78ZM51.7962 64.9461C51.8604 63.286 52.9864 61.9802 54.6732 61.6843L54.8264 61.7694L55.742 64.1139L55.6424 64.2958L51.9637 65.0843L51.7962 64.9461Z" fill="#FCFFFF"/>
<path d="M57.4851 66.0279L54.6779 58.856H53.5345L54.3345 60.905C52.2859 61.3559 50.7991 63.1998 50.7991 65.4956C50.7991 65.7 50.8197 65.9255 50.8413 66.1408L55.9572 65.0447L56.3418 66.0279H57.4851ZM51.9332 64.9523C51.9953 63.3543 53.0766 62.1036 54.6985 61.8173L55.6138 64.1628L51.9332 64.9523Z" fill="#FCFFFF"/>
<path fill-rule="evenodd" clip-rule="evenodd" d="M58.4605 58.856L58.5987 58.7198H59.6381L59.7762 58.856V66.028L59.6381 66.1641H58.5987L58.4605 66.028V58.856ZM58.7369 58.9921V65.8918H59.4999V58.9921H58.7369Z" fill="#FCFFFF"/>
<path d="M58.5977 58.8559H59.6379V66.0279H58.5977V58.8559Z" fill="#FCFFFF"/>
<path fill-rule="evenodd" clip-rule="evenodd" d="M61.3709 58.8559L61.509 58.7198H62.5495L62.6513 58.7639L66.6755 63.0859V58.8559L66.8136 58.7198H67.853L67.9912 58.8559V66.0279L67.853 66.164H66.8136L66.6755 66.0279V64.8743L62.6876 60.5991V66.0279L62.5495 66.164H61.509L61.3709 66.0279V58.8559ZM61.6472 58.9921V65.8918H62.4113V60.2498L62.6512 60.1577L66.9153 64.7291L66.9518 64.8212V65.8918H67.7148V58.9921H66.9518V63.4356L66.7118 63.5276L62.4887 58.9921H61.6472Z" fill="#FCFFFF"/>
<path d="M66.8126 58.8559V63.4356L62.5495 58.8559H61.509V66.0279H62.5495V60.2498L66.8126 64.8191V66.0279H67.8519V58.8559H66.8126Z" fill="#FCFFFF"/>
<path fill-rule="evenodd" clip-rule="evenodd" d="M69.5859 58.8559L69.724 58.7198H74.6111L74.7493 58.8559V59.8189L74.6111 59.9551H70.9016V61.8244H74.2978L74.436 61.9605V62.9235L74.2978 63.0597H70.9016V64.9288H74.6111L74.7493 65.0649V66.0279L74.6111 66.164H69.724L69.5859 66.0279V58.8559ZM69.8622 58.9921V65.8918H74.4729V65.201H70.7634L70.6253 65.0649V62.9235L70.7634 62.7874H74.1596V62.0967H70.7634L70.6253 61.9605V59.8189L70.7634 59.6828H74.4729V58.9921H69.8622Z" fill="#FCFFFF"/>
<path d="M74.6101 59.819V58.856H69.7231V66.0279H74.6101V65.0649H70.7635V62.9236H74.2987V61.9606H70.7635V59.819H74.6101Z" fill="#FCFFFF"/>
</svg>
