<svg width="25" height="25" viewBox="0 0 25 25" fill="none" xmlns="http://www.w3.org/2000/svg">
<path d="M22.4994 17.4201V20.4201C22.5006 20.6986 22.4435 20.9743 22.332 21.2294C22.2204 21.4846 22.0567 21.7137 21.8515 21.902C21.6463 22.0902 21.404 22.2336 21.1402 22.3228C20.8764 22.412 20.5968 22.4452 20.3194 22.4201C17.2423 22.0857 14.2864 21.0342 11.6894 19.3501C9.27327 17.8148 7.22478 15.7663 5.68945 13.3501C3.99942 10.7413 2.94769 7.77109 2.61944 4.6801C2.59446 4.40356 2.62732 4.12486 2.71595 3.86172C2.80457 3.59859 2.94702 3.35679 3.13421 3.15172C3.32141 2.94665 3.54925 2.78281 3.80324 2.67062C4.05722 2.55843 4.33179 2.50036 4.60945 2.5001H7.60945C8.09475 2.49532 8.56524 2.66718 8.93321 2.98363C9.30118 3.30008 9.54152 3.73954 9.60944 4.2201C9.73607 5.18016 9.97089 6.12282 10.3094 7.0301C10.444 7.38802 10.4731 7.77701 10.3934 8.15098C10.3136 8.52494 10.1283 8.86821 9.85944 9.1401L8.58945 10.4101C10.013 12.9136 12.0859 14.9865 14.5894 16.4101L15.8594 15.1401C16.1313 14.8712 16.4746 14.6859 16.8486 14.6062C17.2225 14.5264 17.6115 14.5556 17.9694 14.6901C18.8767 15.0286 19.8194 15.2635 20.7794 15.3901C21.2652 15.4586 21.7088 15.7033 22.026 16.0776C22.3431 16.4519 22.5116 16.9297 22.4994 17.4201Z" stroke="#FCFCFC" stroke-width="1.5" stroke-linecap="round" stroke-linejoin="round"/>
</svg>
