<svg width="49" height="49" viewBox="0 0 49 49" fill="none" xmlns="http://www.w3.org/2000/svg">
<g clip-path="url(#clip0_721_1814)">
<path d="M24.5 48.5C37.7548 48.5 48.5 37.7548 48.5 24.5C48.5 11.2452 37.7548 0.5 24.5 0.5C11.2452 0.5 0.5 11.2452 0.5 24.5C0.5 37.7548 11.2452 48.5 24.5 48.5Z" fill="#FCFCFC"/>
<path d="M34.9799 15.8132C35.1668 14.605 34.0181 13.6513 32.9438 14.123L11.5472 23.5172C10.7768 23.8554 10.8332 25.0224 11.6322 25.2768L16.0446 26.682C16.8869 26.9502 17.7987 26.8115 18.5342 26.3034L28.4825 19.4304C28.7825 19.2231 29.1095 19.6497 28.8531 19.9139L21.6921 27.2969C20.9975 28.0131 21.1353 29.2268 21.971 29.7507L29.9885 34.7785C30.8877 35.3423 32.0445 34.7759 32.2127 33.6891L34.9799 15.8132Z" fill="black"/>
</g>
<defs>
<clipPath id="clip0_721_1814">
<rect width="48" height="48" fill="white" transform="translate(0.5 0.5)"/>
</clipPath>
</defs>
</svg>
