<svg width="48" height="48" viewBox="0 0 48 48" fill="none" xmlns="http://www.w3.org/2000/svg">
<g clip-path="url(#clip0_2556_6213)">
<path d="M24 48C37.2548 48 48 37.2548 48 24C48 10.7452 37.2548 0 24 0C10.7452 0 0 10.7452 0 24C0 37.2548 10.7452 48 24 48Z" fill="#A6B7A9"/>
<path d="M34.4799 15.3132C34.6668 14.105 33.5181 13.1513 32.4438 13.623L11.0472 23.0172C10.2768 23.3554 10.3332 24.5224 11.1322 24.7768L15.5446 26.182C16.3869 26.4502 17.2987 26.3115 18.0342 25.8034L27.9825 18.9304C28.2825 18.7231 28.6095 19.1497 28.3531 19.4139L21.1921 26.7969C20.4975 27.5131 20.6353 28.7268 21.471 29.2507L29.4885 34.2785C30.3877 34.8423 31.5445 34.2759 31.7127 33.1891L34.4799 15.3132Z" fill="#114A3E"/>
</g>
<defs>
<clipPath id="clip0_2556_6213">
<rect width="48" height="48" fill="white"/>
</clipPath>
</defs>
</svg>
